<mxfile host="app.diagrams.net" modified="2023-12-29T09:22:41.786Z" agent="Mozilla/5.0 (Windows NT 10.0; Win64; x64) AppleWebKit/537.36 (KHTML, like Gecko) Chrome/120.0.0.0 Safari/537.36" etag="ByuMrqFS816PV8ajQhLp" version="22.1.15" type="device">
  <diagram name="Page-1" id="2g9W29a-ZxVdKvdNjU2x">
    <mxGraphModel dx="977" dy="573" grid="1" gridSize="10" guides="1" tooltips="1" connect="1" arrows="1" fold="1" page="1" pageScale="1" pageWidth="850" pageHeight="1100" math="0" shadow="0">
      <root>
        <mxCell id="0" />
        <mxCell id="1" parent="0" />
        <mxCell id="wIGiGCR_J7AHrex-740m-1" value="" style="rounded=0;whiteSpace=wrap;html=1;" vertex="1" parent="1">
          <mxGeometry x="230" y="50" width="330" height="350" as="geometry" />
        </mxCell>
        <mxCell id="wIGiGCR_J7AHrex-740m-2" value="COMPANY" style="shape=umlActor;verticalLabelPosition=bottom;verticalAlign=top;html=1;outlineConnect=0;" vertex="1" parent="1">
          <mxGeometry x="120" y="240" width="30" height="60" as="geometry" />
        </mxCell>
        <mxCell id="wIGiGCR_J7AHrex-740m-3" value="MANAGER&lt;br&gt;APPROVAL" style="shape=umlActor;verticalLabelPosition=bottom;verticalAlign=top;html=1;outlineConnect=0;" vertex="1" parent="1">
          <mxGeometry x="630" y="240" width="30" height="60" as="geometry" />
        </mxCell>
        <mxCell id="wIGiGCR_J7AHrex-740m-4" value="LOGIN" style="ellipse;whiteSpace=wrap;html=1;" vertex="1" parent="1">
          <mxGeometry x="335" y="70" width="120" height="40" as="geometry" />
        </mxCell>
        <mxCell id="wIGiGCR_J7AHrex-740m-7" value="" style="endArrow=none;html=1;rounded=0;entryX=0;entryY=0.5;entryDx=0;entryDy=0;" edge="1" parent="1" target="wIGiGCR_J7AHrex-740m-4">
          <mxGeometry width="50" height="50" relative="1" as="geometry">
            <mxPoint x="150" y="280" as="sourcePoint" />
            <mxPoint x="200" y="230" as="targetPoint" />
          </mxGeometry>
        </mxCell>
        <mxCell id="wIGiGCR_J7AHrex-740m-8" value="" style="endArrow=none;html=1;rounded=0;exitX=1;exitY=0.5;exitDx=0;exitDy=0;" edge="1" parent="1" source="wIGiGCR_J7AHrex-740m-4">
          <mxGeometry width="50" height="50" relative="1" as="geometry">
            <mxPoint x="425" y="430" as="sourcePoint" />
            <mxPoint x="620" y="260" as="targetPoint" />
          </mxGeometry>
        </mxCell>
        <mxCell id="wIGiGCR_J7AHrex-740m-9" value="MEREGISTRASIKAN PERUSAHAN" style="ellipse;whiteSpace=wrap;html=1;" vertex="1" parent="1">
          <mxGeometry x="318" y="127" width="155" height="40" as="geometry" />
        </mxCell>
        <mxCell id="wIGiGCR_J7AHrex-740m-10" value="VIEW DETAIL VENDOR" style="ellipse;whiteSpace=wrap;html=1;" vertex="1" parent="1">
          <mxGeometry x="318" y="190" width="155" height="40" as="geometry" />
        </mxCell>
        <mxCell id="wIGiGCR_J7AHrex-740m-11" value="LOGOUT" style="ellipse;whiteSpace=wrap;html=1;" vertex="1" parent="1">
          <mxGeometry x="335" y="345" width="120" height="40" as="geometry" />
        </mxCell>
        <mxCell id="wIGiGCR_J7AHrex-740m-12" value="APPROVAL VENDOR" style="ellipse;whiteSpace=wrap;html=1;" vertex="1" parent="1">
          <mxGeometry x="317.5" y="242" width="155" height="40" as="geometry" />
        </mxCell>
        <mxCell id="wIGiGCR_J7AHrex-740m-13" value="" style="endArrow=none;html=1;rounded=0;exitX=1;exitY=0.5;exitDx=0;exitDy=0;" edge="1" parent="1" source="wIGiGCR_J7AHrex-740m-10">
          <mxGeometry width="50" height="50" relative="1" as="geometry">
            <mxPoint x="465" y="100" as="sourcePoint" />
            <mxPoint x="630" y="280" as="targetPoint" />
          </mxGeometry>
        </mxCell>
        <mxCell id="wIGiGCR_J7AHrex-740m-14" value="" style="endArrow=none;html=1;rounded=0;exitX=1;exitY=0.5;exitDx=0;exitDy=0;" edge="1" parent="1" source="wIGiGCR_J7AHrex-740m-12">
          <mxGeometry width="50" height="50" relative="1" as="geometry">
            <mxPoint x="483" y="220" as="sourcePoint" />
            <mxPoint x="620" y="290" as="targetPoint" />
          </mxGeometry>
        </mxCell>
        <mxCell id="wIGiGCR_J7AHrex-740m-15" value="" style="endArrow=none;html=1;rounded=0;entryX=0;entryY=0.5;entryDx=0;entryDy=0;" edge="1" parent="1" target="wIGiGCR_J7AHrex-740m-9">
          <mxGeometry width="50" height="50" relative="1" as="geometry">
            <mxPoint x="160" y="290" as="sourcePoint" />
            <mxPoint x="345" y="100" as="targetPoint" />
          </mxGeometry>
        </mxCell>
        <mxCell id="wIGiGCR_J7AHrex-740m-16" value="" style="endArrow=none;html=1;rounded=0;entryX=0;entryY=0.5;entryDx=0;entryDy=0;" edge="1" parent="1" target="wIGiGCR_J7AHrex-740m-10">
          <mxGeometry width="50" height="50" relative="1" as="geometry">
            <mxPoint x="170" y="300" as="sourcePoint" />
            <mxPoint x="328" y="157" as="targetPoint" />
          </mxGeometry>
        </mxCell>
        <mxCell id="wIGiGCR_J7AHrex-740m-17" value="" style="endArrow=none;html=1;rounded=0;entryX=0;entryY=0.5;entryDx=0;entryDy=0;" edge="1" parent="1" target="wIGiGCR_J7AHrex-740m-11">
          <mxGeometry width="50" height="50" relative="1" as="geometry">
            <mxPoint x="180" y="310" as="sourcePoint" />
            <mxPoint x="328" y="220" as="targetPoint" />
          </mxGeometry>
        </mxCell>
        <mxCell id="wIGiGCR_J7AHrex-740m-18" value="" style="endArrow=none;html=1;rounded=0;exitX=1;exitY=0.5;exitDx=0;exitDy=0;" edge="1" parent="1" source="wIGiGCR_J7AHrex-740m-11">
          <mxGeometry width="50" height="50" relative="1" as="geometry">
            <mxPoint x="483" y="280" as="sourcePoint" />
            <mxPoint x="620" y="300" as="targetPoint" />
          </mxGeometry>
        </mxCell>
        <mxCell id="wIGiGCR_J7AHrex-740m-19" value="STATUS VENDOR&lt;br&gt;DETAIL" style="ellipse;whiteSpace=wrap;html=1;" vertex="1" parent="1">
          <mxGeometry x="318" y="292" width="155" height="40" as="geometry" />
        </mxCell>
        <mxCell id="wIGiGCR_J7AHrex-740m-20" value="" style="endArrow=none;html=1;rounded=0;entryX=0;entryY=0.5;entryDx=0;entryDy=0;" edge="1" parent="1" target="wIGiGCR_J7AHrex-740m-19">
          <mxGeometry width="50" height="50" relative="1" as="geometry">
            <mxPoint x="180" y="310" as="sourcePoint" />
            <mxPoint x="328" y="220" as="targetPoint" />
          </mxGeometry>
        </mxCell>
        <mxCell id="wIGiGCR_J7AHrex-740m-21" value="" style="endArrow=none;html=1;rounded=0;exitX=1;exitY=0.5;exitDx=0;exitDy=0;" edge="1" parent="1" source="wIGiGCR_J7AHrex-740m-19">
          <mxGeometry width="50" height="50" relative="1" as="geometry">
            <mxPoint x="483" y="272" as="sourcePoint" />
            <mxPoint x="630" y="300" as="targetPoint" />
          </mxGeometry>
        </mxCell>
      </root>
    </mxGraphModel>
  </diagram>
</mxfile>
